<?xml version="1.0" encoding="utf-8"?>
<!-- Generator: Adobe Illustrator 22.0.1, SVG Export Plug-In . SVG Version: 6.00 Build 0)  -->
<svg version="1.1" id="Layer_1" xmlns="http://www.w3.org/2000/svg" xmlns:xlink="http://www.w3.org/1999/xlink" x="0px" y="0px"
	 viewBox="0 0 24 24" style="enable-background:new 0 0 24 24;" xml:space="preserve">
<style type="text/css">
	.st0{fill:#221A1C;}
	.st1{fill:#231F20;}
</style>
<path d="M16.82612,8.113c0.21191,0.17725,0.23975,0.49268,0.0625,0.7041l-5.01758,5.99414
	c-0.08984,0.10791-0.22119,0.17285-0.36133,0.17871c-0.00732,0.00049-0.01465,0.00049-0.02197,0.00049
	c-0.13232,0-0.25977-0.05273-0.354-0.14697l-2.98828-2.99609c-0.19482-0.19531-0.19482-0.51221,0.00098-0.70703
	c0.1958-0.19482,0.51221-0.19482,0.70703,0.00098l2.60205,2.60889l4.6665-5.57471C16.29829,7.96456,16.61469,7.93477,16.82612,8.113
	z M18.37592,18.32979c-0.4519,0.4519-0.94122,0.84351-1.45667,1.17926l1.08704,1.97992l-0.87695,0.48145l-1.07971-1.96655
	c-1.27026,0.6377-2.65887,0.96265-4.04968,0.96265c-1.39032,0-2.77838-0.32483-4.04834-0.96204l-1.08154,1.97034l-0.87695-0.48145
	l1.08881-1.98352c-0.51587-0.33594-1.00568-0.72778-1.45795-1.18005C2.35938,15.06521,2.13136,9.90194,4.92963,6.3658
	L3.99726,4.97231l3.01385-2.01654l0.71179,1.06378c2.66522-1.43475,5.90216-1.43219,8.56567,0.00684l0.71631-1.07062
	l3.01385,2.01654l-0.94,1.40497C21.86768,9.91305,21.63703,15.06869,18.37592,18.32979z M17.66889,17.62276
	c3.12598-3.12598,3.12598-8.21191,0-11.33789c-1.56299-1.56299-3.61572-2.34424-5.66895-2.34424S7.89399,4.72188,6.331,6.28487
	c-3.12598,3.12598-3.12598,8.21191,0,11.33789S14.54292,20.74874,17.66889,17.62276z"/>
</svg>
