<?xml version="1.0" encoding="utf-8"?>
<!-- Generator: Adobe Illustrator 22.0.1, SVG Export Plug-In . SVG Version: 6.00 Build 0)  -->
<svg version="1.1" id="Layer_1" xmlns="http://www.w3.org/2000/svg" xmlns:xlink="http://www.w3.org/1999/xlink" x="0px" y="0px"
	 viewBox="0 0 24 24" style="enable-background:new 0 0 24 24; fill:white;" xml:space="preserve">
<style type="text/css">
	.st0{fill:#white;}
	.st1{fill:#white;}
</style>
<path d="M12,22C6.48584,22,2,17.51367,2,12S6.48584,2,12,2c3.15479,0,6.0415,1.53711,7.91943,4.21582
	c0.15771,0.22754,0.10352,0.53809-0.12256,0.69629c-0.22607,0.15918-0.53809,0.10352-0.69678-0.12207
	C17.41211,4.38184,14.82422,3,12,3c-4.9624,0-9,4.03711-9,9s4.0376,9,9,9c2.95898,0,5.47803-1.33984,7.09326-3.77344
	c0.15283-0.23047,0.46289-0.29297,0.69287-0.14062c0.23145,0.1543,0.29199,0.46582,0.14014,0.69336
	C18.12012,20.50098,15.30518,22,12,22z M8.12061,11.71875c-0.0791,0.09277-0.11816,0.20801-0.11816,0.32227
	c0,0.11719,0.04102,0.2334,0.12256,0.32812l2.99561,3.4502c0.18115,0.20801,0.49658,0.23047,0.70508,0.0498
	c0.20996-0.18262,0.23145-0.49805,0.0498-0.70605l-2.29688-2.64551H21.5c0.27637,0,0.5-0.22363,0.5-0.5s-0.22363-0.5-0.5-0.5
	H9.59833l2.28741-2.70996c0.17773-0.20898,0.15186-0.52539-0.05908-0.7041c-0.21143-0.17871-0.52686-0.15137-0.70459,0.05957
	L8.12061,11.71875z"/>
</svg>
