<?xml version="1.0" encoding="utf-8"?>
<!-- Generator: Adobe Illustrator 22.0.1, SVG Export Plug-In . SVG Version: 6.00 Build 0)  -->
<svg version="1.1" id="Layer_1" xmlns="http://www.w3.org/2000/svg" xmlns:xlink="http://www.w3.org/1999/xlink" x="0px" y="0px"
	 viewBox="0 0 24 24" style="enable-background:new 0 0 24 24; fill:white" xml:space="preserve">
<style type="text/css">
	.st0{fill:#white;}
	.st1{fill:#white;}
</style>
<path d="M20.01769,5.49612v15.99414c0,0.27637-0.22363,0.5-0.5,0.5H4.49816c-0.27637,0-0.5-0.22363-0.5-0.5V5.49612
	c0-0.27637,0.22363-0.5,0.5-0.5h2.02344c0.27637,0,0.5,0.22363,0.5,0.5s-0.22363,0.5-0.5,0.5H4.99816v14.99414h14.01953V5.99612
	h-1.50195c-0.27637,0-0.5-0.22363-0.5-0.5s0.22363-0.5,0.5-0.5h2.00195C19.79406,4.99612,20.01769,5.21976,20.01769,5.49612z
	 M8.14025,7.83646c-0.09375-0.09375-0.14648-0.22119-0.146-0.354l0.00586-2.98047c0.00049-0.27588,0.22412-0.49902,0.5-0.49902
	h1.50977V3.5596c0-0.86816,0.70605-1.57422,1.57373-1.57422h0.83838c0.86816,0,1.57422,0.70605,1.57422,1.57422v0.4082h1.50977
	c0.13281,0,0.26025,0.05273,0.354,0.14697c0.09375,0.09375,0.14649,0.22119,0.146,0.354l-0.00586,3.01562
	c-0.00049,0.27588-0.22412,0.49902-0.5,0.49902H8.49425C8.36144,7.98343,8.234,7.93069,8.14025,7.83646z M8.99523,6.98343h6.00586
	l0.00391-2.01562H13.4962c-0.27637,0-0.5-0.22363-0.5-0.5V3.5596c0-0.31641-0.25781-0.57422-0.57422-0.57422h-0.83838
	c-0.31641,0-0.57373,0.25781-0.57373,0.57422v0.94336c0,0.27637-0.22363,0.5-0.5,0.5H8.99913L8.99523,6.98343z M11.01573,11.49808
	c0,0.27637,0.22363,0.5,0.5,0.5h4.98438c0.27637,0,0.5-0.22363,0.5-0.5s-0.22363-0.5-0.5-0.5h-4.98438
	C11.23937,10.99808,11.01573,11.22171,11.01573,11.49808z M7.51232,11.99808h1.02686c0.27637,0,0.5-0.22363,0.5-0.5
	s-0.22363-0.5-0.5-0.5H7.51232c-0.27637,0-0.5,0.22363-0.5,0.5S7.23595,11.99808,7.51232,11.99808z M16.49376,14.98245
	c0.27637,0,0.5-0.22363,0.5-0.5s-0.22363-0.5-0.5-0.5h-4.98438c-0.27637,0-0.5,0.22363-0.5,0.5s0.22363,0.5,0.5,0.5H16.49376z
	 M8.53282,14.98245c0.27637,0,0.5-0.22363,0.5-0.5s-0.22363-0.5-0.5-0.5H7.50597c-0.27637,0-0.5,0.22363-0.5,0.5
	s0.22363,0.5,0.5,0.5H8.53282z M11.5172,17.97855h4.98438c0.27637,0,0.5-0.22363,0.5-0.5s-0.22363-0.5-0.5-0.5H11.5172
	c-0.27637,0-0.5,0.22363-0.5,0.5S11.24083,17.97855,11.5172,17.97855z M7.51378,17.97855h1.02734c0.27637,0,0.5-0.22363,0.5-0.5
	s-0.22363-0.5-0.5-0.5H7.51378c-0.27637,0-0.5,0.22363-0.5,0.5S7.23741,17.97855,7.51378,17.97855z"/>
</svg>
