<?xml version="1.0" encoding="utf-8"?>
<!-- Generator: Adobe Illustrator 22.0.1, SVG Export Plug-In . SVG Version: 6.00 Build 0)  -->
<svg version="1.1" id="Layer_1" xmlns="http://www.w3.org/2000/svg" xmlns:xlink="http://www.w3.org/1999/xlink" x="0px" y="0px"
	 viewBox="0 0 24 24" style="enable-background:new 0 0 24 24; fill: #F13B70" xml:space="preserve">
<style type="text/css">
	.st0{fill:#221A1C;}
	.st1{fill:#231F20;}
</style>
<path d="M12.00034,2.00003c-5.51367,0-10,4.48584-10,10s4.48633,10,10,10s10-4.48584,10-10S17.51402,2.00003,12.00034,2.00003z
	 M12.00034,21.00003c-4.96289,0-9-4.0376-9-9s4.03711-9,9-9s9,4.0376,9,9S16.96323,21.00003,12.00034,21.00003z M15.92905,15.73636
	c-0.0918,0.1626-0.26172,0.25391-0.43555,0.25391c-0.08398,0-0.16797-0.021-0.24609-0.06445l-3.99414-2.25586
	c-0.15723-0.08887-0.25391-0.25537-0.25391-0.43555V7.50296c0-0.27637,0.22363-0.5,0.5-0.5s0.5,0.22363,0.5,0.5v5.43945
	l3.74023,2.1123C15.97984,15.19046,16.0648,15.49564,15.92905,15.73636z"/>
</svg>
