<?xml version="1.0" encoding="utf-8"?>
<!-- Generator: Adobe Illustrator 22.0.1, SVG Export Plug-In . SVG Version: 6.00 Build 0)  -->
<svg version="1.1" id="Layer_1" xmlns="http://www.w3.org/2000/svg" xmlns:xlink="http://www.w3.org/1999/xlink" x="0px" y="0px"
	 viewBox="0 0 24 24" style="enable-background:new 0 0 24 24; fill: red;" xml:space="preserve">
<style type="text/css">
	.st0{fill:#red;}
	.st1{fill:#red;}
</style>
<path class="st1" d="M21.99546,11.49661v0.50342c0,5.52539-4.4834,10.02051-9.99512,10.02051
	c-5.52539,0-10.02051-4.49512-10.02051-10.02051S6.47495,1.97952,12.00034,1.97952h0.5c0.27637,0,0.5,0.22363,0.5,0.5
	s-0.22363,0.5-0.5,0.5h-0.5c-4.97363,0-9.02051,4.04639-9.02051,9.02051s4.04688,9.02051,9.02051,9.02051
	c4.95996,0,8.99512-4.04639,8.99512-9.02051v-0.50342c0-0.27637,0.22363-0.5,0.5-0.5S21.99546,11.22025,21.99546,11.49661z
	 M11.49937,7.00296c-0.27637,0-0.5,0.22363-0.5,0.5v5.73145c0,0.18018,0.09668,0.34668,0.25391,0.43555l3.99414,2.25586
	c0.07812,0.04346,0.16211,0.06445,0.24609,0.06445c0.17383,0,0.34375-0.09131,0.43555-0.25391
	c0.13574-0.24072,0.05078-0.5459-0.18945-0.68164l-3.74023-2.1123V7.50296C11.99937,7.22659,11.77573,7.00296,11.49937,7.00296z
	 M15.49558,3.99612c0.27557,0,0.49854-0.22296,0.49854-0.49854s-0.22296-0.49854-0.49854-0.49854h-0.0097
	c-0.27557,0-0.49365,0.22296-0.49365,0.49854S15.22007,3.99612,15.49558,3.99612z M18.49558,5.99612
	c0.27557,0,0.49854-0.22296,0.49854-0.49854s-0.22296-0.49854-0.49854-0.49854h-0.0097c-0.27557,0-0.49365,0.22296-0.49365,0.49854
	S18.22007,5.99612,18.49558,5.99612z M20.5015,8.99216c0.27551,0,0.49854-0.22296,0.49854-0.49847
	c0-0.27557-0.22302-0.49854-0.49854-0.49854h-0.00977c-0.27551,0-0.49365,0.22296-0.49365,0.49854
	C19.99809,8.7692,20.22593,8.99216,20.5015,8.99216z"/>
</svg>
