<?xml version="1.0" encoding="utf-8"?>
<!-- Generator: Adobe Illustrator 22.0.1, SVG Export Plug-In . SVG Version: 6.00 Build 0)  -->
<svg version="1.1" id="Layer_1" xmlns="http://www.w3.org/2000/svg" xmlns:xlink="http://www.w3.org/1999/xlink" x="0px" y="0px"
	 viewBox="0 0 24 24" style="enable-background:new 0 0 24 24; fill:#D5D7DB" xml:space="preserve">
<style type="text/css">
	.st0{fill:#FFFFF;}
	.st1{fill:#FFFFF;}
</style>
<path d="M14.00255,12.97855c-0.07861,0-0.15625,0.01855-0.22607,0.0542l-1.77637,0.90088l-1.77686-0.90088
	c-0.06982-0.03564-0.14746-0.0542-0.22607-0.0542c-3.66211,0-6.99707,3.08252-6.99707,6.4668v1.05078c0,0.27637,0.22363,0.5,0.5,0.5
	h17c0.27637,0,0.5-0.22363,0.5-0.5v-1.05078C21.00011,16.06107,17.66466,12.97855,14.00255,12.97855z M20.00011,19.99612h-16
	v-0.55078c0-2.77441,2.84082-5.39941,5.87988-5.46533l1.89404,0.95996c0.1416,0.07227,0.31055,0.07227,0.45215,0l1.89355-0.95996
	c3.03906,0.06592,5.88037,2.69092,5.88037,5.46533V19.99612z M12.00011,11.98489c1.8208,0,3.9917-0.78027,3.9917-4.49805
	c0-2.48047-1.79053-4.49854-3.9917-4.49854s-3.9917,2.01807-3.9917,4.49854C8.00841,11.20462,10.17931,11.98489,12.00011,11.98489z
	 M12.00011,3.96194c1.66406,0,3.01807,1.58105,3.01807,3.5249c0,2.40479-0.95898,3.52441-3.01807,3.52441
	S8.98204,9.89163,8.98204,7.48685C8.98204,5.543,10.33605,3.96194,12.00011,3.96194z"/>
</svg>
